<svg xmlns="http://www.w3.org/2000/svg" version="1.0" viewBox="0 0 710 282"><path d="M353 29v14h-28v60h8V52h334v204H333v-51h-8v60h350v-28h28V15H353v14zm342 97v102h-20V43H361V24h334v102zm-517.8-12.9c-14.8 2.5-24.3 12.5-27.9 29.3-3.2 15.1 1.5 32.4 11.2 40.9 9.2 8 29.4 11.1 41 6.2 3.7-1.5 4-1.5 7.4.8 9.6 6.3 8.5 6 10.8 2.8l2.1-2.8-4.8-3.7-4.9-3.8 3.4-5c4.9-7 7-14.6 6.9-24.8 0-21.6-10.1-35.7-28.2-39.5a33.7 33.7 0 0 0-17-.4zm19.3 10.3c8.4 3.9 13.5 11.6 15.3 23.1 1.7 10.7-1.3 23-6.6 27.9-2.1 1.8-2.2 1.8-6.5-1.8l-4.4-3.6-2.8 3c-2.8 2.9-2.8 3-.9 4.5 1 .9 2.7 2 3.7 2.6 2.5 1.4 2.1 2.6-1.4 3.8-7.1 2.5-17.8.3-24.1-4.9-11.6-9.6-13.1-35.8-2.7-48.4 6.9-8.3 20.2-11 30.4-6.2z"/><path d="M612.5 114.2a29.4 29.4 0 0 0-12.7 9.9 24.3 24.3 0 0 0-2.5 8.6l-.6 5.3h4.5c4.5 0 4.5 0 5.2-4.1 1.5-9.1 5.7-12.9 14.4-12.9 4.1 0 5.5.5 8 2.8a17 17 0 0 1 4.1 7c1.5 5.6 0 8.9-8 17.2-7.1 7.4-9.8 12.6-9.9 18.7v4.3h4.5c4.3 0 4.5-.1 4.5-3 0-5.1 2.6-9.6 9.2-16.2 9.4-9.3 11.5-15.2 8.7-25.3-2.8-9.8-18.1-16.3-29.4-12.3zM15 152.5V191h15.9c24.2 0 32.3-2.3 39.3-11.5 10.9-14.4 10.8-42.3-.3-54.9-7.4-8.4-15.5-10.6-39-10.6H15v38.5zm40.4-27.6c9 4.4 13.3 15.1 12.3 30.9-.6 10.7-4.2 18.3-10.5 22.7-4.3 2.9-4.7 3-18.3 3.3l-13.9.4v-60.4l12.8.4c10.8.3 13.4.7 17.6 2.7zM354 152.5V191h10v-77h-10v38.5zm26-.1V191h10v-32.8l16.8-.4c15.5-.3 17-.5 20.5-2.6 2-1.3 5-4.5 6.5-7 2.3-4.1 2.7-5.8 2.7-12.8 0-7.1-.3-8.5-2.7-12.1a19.6 19.6 0 0 0-7.5-6.4c-4.5-2.3-6.1-2.4-25.5-2.7l-20.8-.4v38.6zm41-27.8c6.7 3.9 7.8 14.3 2.2 20.4-3.3 3.7-9.4 5-23.3 5H390v-28.2l13.8.4c11.5.3 14.3.7 17.2 2.4zm153-5.6v5h10v-10h-10v5zm-28 8v8h-3.5c-3.3 0-3.5.2-3.5 3.5s.2 3.5 3.5 3.5h3.5v20.4c0 11.3.4 21.6 1 23.1 1.3 3.3 6.4 5.5 13 5.5h5v-3.5c0-3.3-.2-3.5-3.3-3.5-1.8 0-3.8-.5-4.5-1.2-.9-.9-1.2-6.9-1.2-21V142h4.5c4.5 0 4.5 0 4.5-3.5s0-3.5-4.5-3.5H556v-16h-10v8zm-437.8 7.1c-12.7 2.5-19.4 12.5-19.6 29.4-.1 8 .2 9.6 2.8 14.8a21 21 0 0 0 16.6 12.6c13.1 2.6 23.1-1.4 28.1-11.1 2.7-5.3 2.5-5.8-2.6-5.8-3.9 0-4.6.4-6 2.9-3.6 7.1-13.1 9.9-20.8 6.2-4.9-2.4-7.5-6.5-8.4-13.2l-.6-3.9h41.6l-.6-6.3c-1.3-14.3-7.7-23.5-17.9-25.6a22.5 22.5 0 0 0-12.6 0zm13.8 9.4c3.2 1.6 6.3 6.9 7.3 12.2l.7 3.3H97.8l.7-3.3c1.8-8.4 7.8-13.7 15.7-13.7 2.7 0 6.2.7 7.8 1.5zm188.8-9.1c-10.8 2.9-16.9 10.6-18.7 23.8a41 41 0 0 0 3.4 22.4c5.6 8.5 17.8 12.9 29 10.4a20.7 20.7 0 0 0 13.9-9.4c3.9-6 3.5-7.6-1.6-7.6-3.7.1-4.6.5-6.3 3.2-3.4 5.4-6.9 7.2-13.5 7.3-8.9 0-14-4.7-15.4-14.3l-.6-4.2h41.6l-.7-6.3c-1.5-14-6.8-22.4-16.2-25.2-6-1.8-8.6-1.8-14.9-.1zm14.9 9.6c3.6 2.2 5.8 5.8 6.8 11.3l.7 3.7H302v-2.8c0-4.2 4.1-10.5 8-12.4a17.6 17.6 0 0 1 15.7.2zm137.8-10.1c-8.2 2.1-13.3 7.2-14.2 14.1l-.6 4h4.7c3.4 0 4.6-.4 4.6-1.5 0-2.8 2.4-6.7 5.1-8.1a23.2 23.2 0 0 1 15.8.1c5.1 2.6 6.5 11.2 2.1 13.5-.9.5-5.7 1.4-10.6 2-14.8 1.8-19.3 3.8-22.6 10.3a16 16 0 0 0 6.1 21.1c6.5 3.8 19.9 2.1 26.9-3.4l2.6-2.1 1.3 2.5c1.8 3.4 4.3 4.6 9.7 4.6 4.4 0 4.6-.1 4.6-3 0-2.5-.4-3-2.4-3-1.4 0-2.8-.6-3.3-1.3-.4-.6-1-10.3-1.3-21.3-.6-22.6-.6-22.6-8.3-26.6a40.6 40.6 0 0 0-20.2-1.9zm19.5 34.8c0 9.5-4.4 14.2-14.8 15.9-7.5 1.2-12.2-2.5-12.2-9.5 0-5.3 2.7-7.2 14.1-9.6l11.7-2.4c.8-.1 1.2 1.6 1.2 5.6zm47.9-34.8c-4 1.3-7.6 4-9.8 7.4l-2.1 3.2V135h-9v56h8.8l.4-18.3c.2-14.9.6-18.8 2.1-21.7 2.1-4.2 5.8-6.7 11.6-7.6l4.2-.7-.3-4.6c-.3-4.9-1.2-5.6-5.9-4.2zm-295.9 24c0 22 .1 22.9 2.3 26.2 3.2 4.8 8.8 7.3 16.2 7.2 6.7-.1 11-1.8 15-6l2.5-2.8v8.5h9v-56h-8.8l-.4 18.2c-.3 16.6-.5 18.7-2.6 22.9-4.8 9.9-17.1 12-22.2 3.7-1.8-3-2-5.1-2-24.1V135h-9v22.9zm339 5.1v28h10v-56h-10v28zm40 22.5v5.5h11v-11h-11v5.5z"/></svg>