<svg xmlns="http://www.w3.org/2000/svg" version="1.0" viewBox="0 0 512 512"><path d="M232.5 1.1C182.5 6.2 138 24 98 54.8A294.9 294.9 0 0 0 38.6 121a348.8 348.8 0 0 0-23 47.1 297.2 297.2 0 0 0-12.8 50.4c-3.1 20-3.1 55 0 75 4.3 27.3 11.4 50 23.7 75 13.2 26.9 26.9 46 48.9 68.1 22.1 22 41.2 35.7 68.1 48.9 25 12.3 47.7 19.4 75 23.7 20 3.1 55 3.1 75 0 16-2.5 36.5-7.7 50.4-12.8 12-4.4 37.2-16.7 47.1-23 32.1-20.4 62-50.3 82.4-82.4 6.4-10 18.6-35.1 23.1-47.4a301 301 0 0 0 13.1-53.1c4.3-30.6.9-83.5-6-93.8-5.9-8.7-20-9.4-26.4-1.3a69.9 69.9 0 0 0-5.6 13.2 133.5 133.5 0 0 1-95 87.9 133.4 133.4 0 0 1-90.9-248.9c3.9-1.9 11.9-5.2 17.7-7.2 11.6-4 14.8-6 17.2-10.6 2.2-4.2 2-12.1-.3-16-3.7-6.4-9.5-8.5-32.8-11.9a402 402 0 0 0-55-.8zm8 36.1a166.7 166.7 0 1 0 234.4 234.3l3.2-4-.6 7a222.5 222.5 0 0 1-291.8 192.4 214.8 214.8 0 0 1-86.8-53.8 220.4 220.4 0 0 1-64-131.1c-1.7-12.7-1.4-41.4.5-55.5A225.5 225.5 0 0 1 116 83.3a244 244 0 0 1 69.7-38.2 247.7 247.7 0 0 1 55.8-11l3-.1-4 3.2z"/></svg>