<svg xmlns="http://www.w3.org/2000/svg" version="1.0" viewBox="0 0 512 512"><path d="M215.7 1.6A198 198 0 0 0 85 76c-26.9 35.3-41 77-41 121.2a196.5 196.5 0 0 0 109.5 177.4 201.2 201.2 0 0 0 172.8 1.6c10.7-5 10.7-5.1 11.9-2.9.6 1.2 24.5 32.3 53.1 69.1 40.5 52 52.8 67.2 55.3 68.2 7.6 3.2 16.6.6 19.6-5.6 2.3-4.6 2.3-11.7-.1-15.5-1-1.7-24.9-32.7-53.1-68.9l-51.2-65.9 3.3-2.6a198.2 198.2 0 0 0 67.4-104.6c4.6-18.2 5.9-29.2 5.9-50s-1.3-31.8-6-50.2A195.8 195.8 0 0 0 262.1 1a240.6 240.6 0 0 0-46.4.6zm52.3 30c53.4 9 99.4 43.2 123.9 92.3 37.6 75 12.5 166.2-58.9 213.9-30 20-70.1 30.5-104.3 27.2-52.8-5-98.2-31.9-127.3-75.5a164.5 164.5 0 0 1 .1-184A170.5 170.5 0 0 1 230 29.6c6.4-.8 28.4.4 38 2z"/></svg>