<svg xmlns="http://www.w3.org/2000/svg" version="1.0" viewBox="0 0 257 396"><path d="M118 14.1c-3 .5-8.4 2.3-11.9 4C88.4 26.3 79 41.8 79 62.9c0 16.3 4 26.8 13.9 36.6 2.8 2.7 5.1 5.2 5.1 5.6 0 .4-2.1 1.4-4.7 2.3A67 67 0 0 0 51 160.2c0 1.6-1.2 1.8-14.4 1.8-13 0-14.6.2-17 2.1-2.6 2-2.6 2.1-2.6 16.4 0 14.3 0 14.4 2.6 16.4 2.2 1.7 4.1 2.1 10.5 2.1H38v89.8c0 85.8.1 90 1.8 91.5 1.7 1.6 9.3 1.7 89.4 1.7 83.5 0 87.6-.1 89.1-1.8 1.6-1.7 1.7-9.5 1.7-91.5V199h8.3c12.5 0 12.7-.3 12.7-18.1 0-13.5-.1-14.1-2.5-16.4-2.3-2.4-2.9-2.5-16.8-2.5h-14.4l-1.3-6.2a59.2 59.2 0 0 0-8.9-22.4 70.3 70.3 0 0 0-32.3-26c-2.7-.8-4.8-1.9-4.8-2.3 0-.4 2.3-2.9 5.1-5.6a46 46 0 0 0 13.9-36c0-15.7-3.9-26-13.8-36.1A52.8 52.8 0 0 0 118 14.1zm24.9 13.4a39 39 0 0 1 16.7 12.3 38.4 38.4 0 0 1 6.7 24.4c-.1 7.5-.5 9.6-3.1 15.2a36.7 36.7 0 0 1-16.4 17.3c-5 2.6-6.1 2.8-17.8 2.8-11.7 0-12.8-.2-17.8-2.8a36.8 36.8 0 0 1-16.3-17c-2.6-5.6-2.9-7.2-2.9-16.3a55 55 0 0 1 1.5-14.5 38 38 0 0 1 21.3-21.4 70 70 0 0 1 28.1 0zm7.8 88.6c21.4 5.6 35.9 18.2 41.3 35.7 3.6 11.5 11.4 10.2-63 10.2-73.6 0-66.2 1-63.6-8.6A54.4 54.4 0 0 1 75.7 134c8-9.4 25.4-17.7 41.4-20 9-1.2 24.5-.3 33.6 2.1zm77.3 64.4v5.5H30v-11h198v5.5zM207 284v85H51V199h156v85z"/><path d="M162 239.8c-.8.2-11.6 10.5-24 22.8L115.5 285l-7.5-7.5c-5.6-5.6-8.1-7.5-10.2-7.5-2.7 0-5.7 2.2-5.9 4.3-.3 3.1 1 4.9 10.9 14.9 7.7 7.9 11.3 10.8 13.1 10.8 1.8 0 8.6-6.1 27.8-25.2 13.9-13.9 25.6-26 25.9-27.1 1.5-4.6-3-9.3-7.6-7.9z"/></svg>